<?xml version="1.0" encoding="UTF-8"?><svg xmlns="http://www.w3.org/2000/svg" xmlns:xlink="http://www.w3.org/1999/xlink" version="1.1" id="Layer_1" x="0px" y="0px" viewBox="0 0 24 24" xml:space="preserve"><path d="M21.966 14.822C21.389 13.305 16.202 0 11.999 0S2.61 13.305 2.042 14.798C.75 17.722.353 20.132 2.61 22.389 3.649 23.428 5.031 24 6.499 24s2.851-.572 3.889-1.611a36.337 36.337 0 0 0 1.611-1.717 36.337 36.337 0 0 0 1.611 1.717C14.649 23.428 16.031 24 17.499 24s2.851-.572 3.889-1.611c2.258-2.257 1.86-4.667.578-7.567zM8.999 13c0-2.708 2.098-3 3-3s3 .292 3 3c0 1.586-1.067 3.738-3 6.125-1.932-2.387-3-4.539-3-6.125zm11.682 8.682c-.85.85-1.98 1.318-3.182 1.318s-2.332-.468-3.182-1.318a35.553 35.553 0 0 1-1.665-1.779c1.707-2.078 3.347-4.658 3.347-6.903 0-2.949-2.066-4-4-4s-4 1.051-4 4c0 2.245 1.64 4.825 3.347 6.903a35.123 35.123 0 0 1-1.665 1.779c-.85.85-1.98 1.318-3.182 1.318s-2.332-.468-3.182-1.318c-1.651-1.651-1.745-3.346-.352-6.504C5.054 9.696 9.352 1 11.999 1s6.945 8.696 9.043 14.202c1.384 3.134 1.29 4.829-.361 6.48z"/><metadata><rdf:RDF xmlns:rdf="http://www.w3.org/1999/02/22-rdf-syntax-ns#" xmlns:rdfs="http://www.w3.org/2000/01/rdf-schema#" xmlns:dc="http://purl.org/dc/elements/1.1/"><rdf:Description about="https://iconscout.com/legal#licenses" dc:title="airbnb" dc:description="airbnb" dc:publisher="Iconscout" dc:date="2018-01-05" dc:format="image/svg+xml" dc:language="en"><dc:creator><rdf:Bag><rdf:li>Icon 54</rdf:li></rdf:Bag></dc:creator></rdf:Description></rdf:RDF></metadata></svg>